<svg xmlns="http://www.w3.org/2000/svg" xmlns:xlink="http://www.w3.org/1999/xlink" width="500" zoomAndPan="magnify" viewBox="0 0 375 374.999991" height="500" preserveAspectRatio="xMidYMid meet" version="1.0"><defs><clipPath id="bf1afd88af"><path d="M 27.757812 5.972656 L 347.257812 5.972656 L 347.257812 368.972656 L 27.757812 368.972656 Z M 27.757812 5.972656 " clip-rule="nonzero"/></clipPath><clipPath id="f8eac8cfac"><path d="M 169.570312 172 L 173 172 L 173 203 L 169.570312 203 Z M 169.570312 172 " clip-rule="nonzero"/></clipPath><clipPath id="ed9d8f2b16"><path d="M 185 146.199219 L 236 146.199219 L 236 228.699219 L 185 228.699219 Z M 185 146.199219 " clip-rule="nonzero"/></clipPath><clipPath id="dac36f6255"><path d="M 248 172 L 252.070312 172 L 252.070312 203 L 248 203 Z M 248 172 " clip-rule="nonzero"/></clipPath></defs><g clip-path="url(#bf1afd88af)"><path fill="#0d08bc" d="M 337.792969 315.851562 C 302.347656 351.296875 255.890625 369.019531 209.4375 369.019531 C 180.988281 369.019531 152.539062 362.375 126.621094 349.078125 C 126.621094 295.09375 126.746094 241.101562 126.617188 187.117188 C 126.710938 166.835938 134.234375 146.566406 149.183594 130.730469 L 119.75 130.730469 C 108.796875 148.003906 103.316406 167.75 103.316406 187.496094 L 103.324219 334.800781 C 93.929688 328.015625 85.214844 320.355469 77.269531 311.921875 L 77.265625 187.496094 C 77.265625 168.066406 81.527344 148.640625 90.042969 130.730469 L 64.660156 130.730469 C 57.527344 148.9375 53.964844 168.21875 53.964844 187.496094 L 53.964844 281.269531 C 36.597656 252.53125 27.914062 220.011719 27.914062 187.496094 C 27.914062 159.050781 34.566406 130.597656 47.855469 104.679688 C 101.714844 104.679688 155.578125 104.679688 209.4375 104.671875 C 226.507812 104.671875 243.585938 109.941406 258.046875 120.46875 L 274.707031 103.808594 C 255.582031 88.855469 232.507812 81.375 209.4375 81.375 C 160.335938 81.375 111.238281 81.375 62.136719 81.375 C 68.921875 71.980469 76.585938 63.269531 85.019531 55.324219 C 126.492188 55.324219 167.964844 55.324219 209.4375 55.324219 C 239.1875 55.324219 268.941406 65.308594 293.238281 85.277344 L 309.777344 68.734375 C 280.882812 44.265625 245.160156 32.027344 209.4375 32.027344 L 115.671875 32.019531 C 144.414062 14.65625 176.921875 5.972656 209.4375 5.972656 C 255.890625 5.972656 302.347656 23.699219 337.792969 59.140625 L 347.003906 68.347656 L 258.789062 156.566406 C 243.375 141.152344 232.734375 130.566406 208.582031 130.730469 C 177.542969 131.195312 152.664062 156.429688 152.664062 187.496094 C 152.882812 218.921875 177.839844 244.269531 209.4375 244.269531 C 232.769531 244.269531 243.835938 233.464844 258.789062 218.429688 L 347.003906 306.644531 Z M 152.671875 332.277344 C 170.878906 339.402344 190.15625 342.96875 209.4375 342.96875 C 245.160156 342.96875 280.882812 330.730469 309.777344 306.257812 L 293.238281 289.71875 C 268.941406 309.6875 239.1875 319.667969 209.4375 319.667969 C 190.007812 319.667969 170.582031 315.40625 152.671875 306.890625 Z M 152.671875 277.183594 C 169.945312 288.136719 189.695312 293.617188 209.4375 293.617188 C 232.503906 293.617188 255.582031 286.136719 274.707031 271.1875 L 258.046875 254.527344 C 243.585938 265.050781 226.507812 270.320312 209.433594 270.320312 C 189.027344 270.320312 168.605469 262.792969 152.671875 247.75 Z M 152.671875 277.183594 " fill-opacity="1" fill-rule="nonzero"/></g><g clip-path="url(#f8eac8cfac)"><path fill="#0d08bc" d="M 171.191406 172.109375 C 170.296875 172.109375 169.570312 172.835938 169.570312 173.730469 L 169.570312 201.261719 C 169.570312 202.15625 170.296875 202.878906 171.191406 202.878906 C 172.085938 202.878906 172.808594 202.15625 172.808594 201.261719 L 172.808594 173.730469 C 172.808594 172.835938 172.085938 172.109375 171.191406 172.109375 Z M 171.191406 172.109375 " fill-opacity="1" fill-rule="nonzero"/></g><g clip-path="url(#ed9d8f2b16)"><path fill="#0d08bc" d="M 234.351562 178.585938 L 229.492188 178.585938 L 229.492188 164.820312 C 229.492188 154.554688 221.136719 146.199219 210.867188 146.199219 C 200.597656 146.199219 192.242188 154.554688 192.242188 164.820312 L 192.242188 178.585938 L 187.386719 178.585938 C 186.492188 178.585938 185.765625 179.3125 185.765625 180.207031 L 185.765625 193.972656 C 185.765625 207.269531 196.160156 218.183594 209.25 219.019531 L 209.25 225.554688 L 203.578125 225.554688 C 202.6875 225.554688 201.960938 226.277344 201.960938 227.171875 C 201.960938 228.066406 202.6875 228.792969 203.578125 228.792969 L 218.15625 228.792969 C 219.050781 228.792969 219.773438 228.066406 219.773438 227.171875 C 219.773438 226.277344 219.050781 225.554688 218.15625 225.554688 L 212.488281 225.554688 L 212.488281 219.019531 C 225.578125 218.183594 235.96875 207.269531 235.96875 193.972656 L 235.96875 180.207031 C 235.96875 179.3125 235.246094 178.585938 234.351562 178.585938 Z M 201.960938 165.632812 L 219.773438 165.632812 C 220.667969 165.632812 221.394531 166.355469 221.394531 167.25 C 221.394531 168.144531 220.667969 168.871094 219.773438 168.871094 L 201.960938 168.871094 C 201.066406 168.871094 200.339844 168.144531 200.339844 167.25 C 200.339844 166.355469 201.066406 165.632812 201.960938 165.632812 Z M 201.960938 173.730469 L 219.773438 173.730469 C 220.667969 173.730469 221.394531 174.453125 221.394531 175.347656 C 221.394531 176.242188 220.667969 176.96875 219.773438 176.96875 L 201.960938 176.96875 C 201.066406 176.96875 200.339844 176.242188 200.339844 175.347656 C 200.339844 174.453125 201.066406 173.730469 201.960938 173.730469 Z M 201.960938 181.828125 L 219.773438 181.828125 C 220.667969 181.828125 221.394531 182.550781 221.394531 183.445312 C 221.394531 184.339844 220.667969 185.066406 219.773438 185.066406 L 201.960938 185.066406 C 201.066406 185.066406 200.339844 184.339844 200.339844 183.445312 C 200.339844 182.550781 201.066406 181.828125 201.960938 181.828125 Z M 201.960938 189.925781 L 219.773438 189.925781 C 220.667969 189.925781 221.394531 190.648438 221.394531 191.542969 C 221.394531 192.4375 220.667969 193.164062 219.773438 193.164062 L 201.960938 193.164062 C 201.066406 193.164062 200.339844 192.4375 200.339844 191.542969 C 200.339844 190.648438 201.066406 189.925781 201.960938 189.925781 Z M 232.730469 193.972656 C 232.730469 206.027344 222.921875 215.835938 210.867188 215.835938 C 198.8125 215.835938 189.003906 206.027344 189.003906 193.972656 L 189.003906 181.828125 L 192.242188 181.828125 L 192.242188 193.972656 C 192.242188 204.242188 200.597656 212.597656 210.867188 212.597656 C 221.136719 212.597656 229.492188 204.242188 229.492188 193.972656 L 229.492188 181.828125 L 232.730469 181.828125 Z M 232.730469 193.972656 " fill-opacity="1" fill-rule="nonzero"/></g><path fill="#0d08bc" d="M 177.667969 180.207031 C 176.773438 180.207031 176.046875 180.933594 176.046875 181.828125 L 176.046875 193.164062 C 176.046875 194.058594 176.773438 194.78125 177.667969 194.78125 C 178.5625 194.78125 179.289062 194.058594 179.289062 193.164062 L 179.289062 181.828125 C 179.289062 180.933594 178.5625 180.207031 177.667969 180.207031 Z M 177.667969 180.207031 " fill-opacity="1" fill-rule="nonzero"/><path fill="#0d08bc" d="M 244.066406 180.207031 C 243.171875 180.207031 242.449219 180.933594 242.449219 181.828125 L 242.449219 193.164062 C 242.449219 194.058594 243.171875 194.78125 244.066406 194.78125 C 244.960938 194.78125 245.6875 194.058594 245.6875 193.164062 L 245.6875 181.828125 C 245.6875 180.933594 244.960938 180.207031 244.066406 180.207031 Z M 244.066406 180.207031 " fill-opacity="1" fill-rule="nonzero"/><g clip-path="url(#dac36f6255)"><path fill="#0d08bc" d="M 250.546875 172.109375 C 249.652344 172.109375 248.925781 172.835938 248.925781 173.730469 L 248.925781 201.261719 C 248.925781 202.15625 249.652344 202.878906 250.546875 202.878906 C 251.441406 202.878906 252.164062 202.15625 252.164062 201.261719 L 252.164062 173.730469 C 252.164062 172.835938 251.441406 172.109375 250.546875 172.109375 Z M 250.546875 172.109375 " fill-opacity="1" fill-rule="nonzero"/></g></svg>